<svg xmlns="http://www.w3.org/2000/svg" width="36" height="36" viewBox="0 0 36 36">
    <g fill="none" fill-rule="evenodd">
        <path d="M0 0h36v36H0z"/>
        <g fill="#FFF" opacity=".8">
            <path d="M29 9a2 2 0 0 0-2-2H5a2 2 0 0 0-2 2v2h26V9zM26.044 14H3v8a2 2 0 0 0 2 2h16.626v-5.75h1.789A5.935 5.935 0 0 1 26.044 14M30.625 20.25H28v-1.312c0-.724.589-1.313 1.313-1.313.723 0 1.312.589 1.312 1.313v1.312zm2.625 0v-1.312A3.943 3.943 0 0 0 29.313 15a3.943 3.943 0 0 0-3.938 3.938v1.312h-1.75v7c0 .967.784 1.75 1.75 1.75h7.875A1.75 1.75 0 0 0 35 27.25v-7h-1.75z"/>
        </g>
    </g>
</svg>
