<svg xmlns="http://www.w3.org/2000/svg" viewBox="0 0 36 36">
  <title>Logout</title>
    <g fill="none" fill-rule="evenodd">
        <path d="M0 0h36v36H0z"/>
        <g fill="#fff" opacity=".8">
            <path d="M23.563 9.815v3.845a8.495 8.495 0 0 1 2.403 5.96c0 4.616-3.58 8.336-7.966 8.336-4.387 0-7.966-3.72-7.966-8.335 0-2.341.923-4.45 2.403-5.96V9.814C9.184 11.794 7 15.444 7 19.62 7 25.893 11.912 31 18 31c6.087 0 11-5.107 11-11.38 0-4.176-2.184-7.826-5.437-9.805"/>
            <path d="M16.565 6.538v11.367c0 .85.643 1.54 1.435 1.54.793 0 1.435-.69 1.435-1.54V6.538C19.435 5.688 18.793 5 18 5c-.792 0-1.435.689-1.435 1.538"/>
        </g>
    </g>
</svg>
