<svg xmlns="http://www.w3.org/2000/svg" width="36" height="36" viewBox="0 0 36 36">
  <title>Logout</title>
    <g fill="none" fill-rule="evenodd">
        <path d="M0 0h36v36H0z"/>
        <g fill="#FFF" opacity=".8">
            <path d="M24.069 9v4.175a9.2 9.2 0 0 1 2.62 6.471c0 5.01-3.903 9.05-8.689 9.05s-8.69-4.04-8.69-9.05a9.2 9.2 0 0 1 2.621-6.471V9C8.383 11.149 6 15.111 6 19.646 6 26.456 11.359 32 18 32c6.64 0 12-5.545 12-12.354 0-4.535-2.383-8.497-5.931-10.646"/>
            <path d="M16 5.597v11.805c0 .883.672 1.598 1.5 1.598.829 0 1.5-.715 1.5-1.598V5.597C19 4.715 18.329 4 17.5 4c-.828 0-1.5.715-1.5 1.597"/>
        </g>
    </g>
</svg>
