<svg xmlns="http://www.w3.org/2000/svg" width="36" height="36" viewBox="0 0 36 36">
    <g fill="none" fill-rule="evenodd">
        <path d="M0 0h36v36H0z"/>
        <path fill="#FFF" d="M19.297 26.86H17.62v-5.405h-2.079v-1.274c.291.009.573-.014.845-.065.271-.052.515-.143.732-.275.216-.13.4-.303.55-.517a1.87 1.87 0 0 0 .295-.798h1.334v8.335zM9.905 9.84v4.8c0 .53.426.96.952.96h.953c.525 0 .952-.43.952-.96v-.96h-.952a.957.957 0 0 1-.953-.96V6.96c0-.53.427-.96.953-.96h.952c.526 0 .952.43.952.96v2.88h1.905v4.8c0 .53.427.96.952.96h.953c.526 0 .952-.43.952-.96v-.96h-.952a.957.957 0 0 1-.953-.96V6.96c0-.53.427-.96.953-.96h.952c.526 0 .953.43.953.96v2.88h1.904v4.8c0 .53.427.96.953.96h.952c.526 0 .952-.43.952-.96v-.96h-.952a.957.957 0 0 1-.952-.96V6.96c0-.53.426-.96.952-.96h.952c.526 0 .953.43.953.96v2.88h.952c1.052 0 1.905.86 1.905 1.92v16.32c0 1.06-.853 1.92-1.905 1.92H9.905A1.913 1.913 0 0 1 8 28.08V11.76c0-1.06.852-1.92 1.905-1.92z" opacity=".8"/>
    </g>
</svg>
