<svg xmlns="http://www.w3.org/2000/svg" viewBox="0 0 27.996 28.001">
  <title>External link</title>
  <path d="M27.698,1.0005H18.746a1.296,1.296,0,1,0-.1019,2.59q0.0509,0.002.1019,0h5.96L11.95,16.2945a1.2919,1.2919,0,0,0-.0048,1.8271L11.95,18.1265a1.302,1.302,0,0,0,1.838,0l12.61-12.562v5.648a1.3,1.3,0,0,0,2.6,0V2.2945A1.298,1.298,0,0,0,27.698,1.0005Zm-4.494,13.038a1.298,1.298,0,0,0-1.3,1.296v10.214a0.876,0.876,0,0,1-.868.862H4.466a0.874,0.874,0,0,1-.866-0.862V9.0405a0.874,0.874,0,0,1,.866-0.862h10.29a1.296,1.296,0,1,0,.1019-2.59q-0.0509-.002-0.1019,0H4.466a3.464,3.464,0,0,0-3.464,3.452v16.508a3.462,3.462,0,0,0,3.464,3.452h16.57a3.462,3.462,0,0,0,3.466-3.452V15.3345a1.298,1.298,0,0,0-1.3-1.296h0.002Z"/>
</svg>
