<svg xmlns="http://www.w3.org/2000/svg" width="23" height="23" viewBox="0 0 23 23">
  <title>Help</title>
    <path fill="#CCDFEE" fill-rule="evenodd" d="M11.5 23C5.149 23 0 17.851 0 11.5S5.149 0 11.5 0 23 5.149 23 11.5 17.851 23 11.5 23zm-1.42-7.274c0 .854.7 1.512 1.554 1.512.854 0 1.554-.658 1.554-1.512 0-.868-.7-1.526-1.554-1.526-.854 0-1.554.658-1.554 1.526zm.168-1.918h2.772v-.826c1.568-.28 2.744-1.33 2.744-3.038 0-2.478-1.904-3.682-4.172-3.682S7.56 7.508 7.56 9.944h2.912c0-.588.532-1.12 1.12-1.12.588 0 1.12.532 1.12 1.12 0 .588-.532 1.12-1.12 1.12h-1.344v2.744z"/>
</svg>
