<svg xmlns="http://www.w3.org/2000/svg" viewBox="0 0 98 65">
    <g fill-rule="nonzero">
        <path d="M7.725 54.6h43.64v-6.812H7.724a.71.71 0 0 1-.73-.723V25.907h52.721c3.967-5.677 10.649-9.29 17.852-9.29 1.149 0 2.297.104 3.445.31V7.535c0-4.129-3.445-7.535-7.62-7.535H7.62C3.445 0 0 3.406 0 7.535v39.53C.209 51.194 3.55 54.6 7.725 54.6zM7.1 7.535a.71.71 0 0 1 .73-.723h65.772c.418 0 .73.31.73.723v4.438H7.1V7.535z"/>
        <path d="M93.057 34.869A14.97 14.97 0 0 0 78.451 23.4c-7.04 0-13.03 4.9-14.607 11.469-2.837.312-5.044 2.606-5.044 5.525v19.08c0 3.024 2.522 5.526 5.57 5.526h28.057c3.047 0 5.57-2.502 5.57-5.526V40.29c.104-2.815-2.102-5.213-4.94-5.421zM78.556 30.28c3.152 0 5.99 1.877 7.25 4.588H71.2c1.366-2.711 4.098-4.588 7.356-4.588zm12.61 27.734H65.84v-16.37h25.325v16.37z"/>
    </g>
</svg>
