<svg xmlns="http://www.w3.org/2000/svg" width="77" height="77" viewBox="0 0 77 77">
    <path fill="#000" fill-rule="nonzero" d="M38.5 77C59.729 77 77 59.729 77 38.5S59.729 0 38.5 0 0 17.271 0 38.5 17.272 77 38.5 77zM49 70c2.321-2.876 4.319-6.243 5.934-10A39.672 39.672 0 0 1 60 62.56c-3.133 3.271-6.87 5.828-11 7.44zm14.825-11A46.524 46.524 0 0 0 57 55.601c1.356-4.22 2.234-8.796 2.54-13.601H70c-.522 6.338-2.736 12.176-6.175 17zM70 35H59.54c-.302-4.798-1.179-9.376-2.54-13.602A46.642 46.642 0 0 0 63.825 18c3.44 4.823 5.653 10.66 6.175 17zM60 14.442A39.714 39.714 0 0 1 54.945 17C53.329 13.244 51.328 9.876 49 7c4.131 1.61 7.868 4.166 11 7.442zM42 9c3.63 2.658 6.685 6.337 9 10.728A52.48 52.48 0 0 1 42 21V9zm0 16.685c3.668-.191 7.246-.76 10.69-1.685 1.212 3.714 2.015 7.75 2.31 12H42V25.685zM42 42h13c-.296 4.252-1.095 8.288-2.305 12A51.466 51.466 0 0 0 42 52.316V42zm0 15c3.083.166 6.09.6 9 1.272-2.313 4.395-5.368 8.072-9 10.728V57zm-26 5.556A39.774 39.774 0 0 1 21.058 60c1.617 3.753 3.616 7.123 5.942 10-4.131-1.613-7.866-4.17-11-7.444zM36 69c-3.633-2.657-6.688-6.335-9-10.728A52.295 52.295 0 0 1 36 57v12zm-1-16.685c-3.671.19-7.25.76-10.697 1.685-1.21-3.714-2.01-7.75-2.303-12h13v10.315zM35 36H22c.298-4.253 1.1-8.288 2.312-12A51.562 51.562 0 0 0 35 25.683V36zm1-27v12a52.48 52.48 0 0 1-9-1.271c2.314-4.395 5.37-8.072 9-10.729zm-8-2c-2.536 2.874-4.716 6.242-6.478 10A44.888 44.888 0 0 1 16 14.44 33.757 33.757 0 0 1 28 7zM12.169 18A46.442 46.442 0 0 0 19 21.403c-1.356 4.219-2.235 8.793-2.544 13.597H6c.521-6.34 2.733-12.177 6.169-17zm4.296 24c.3 4.8 1.173 9.378 2.535 13.606A46.579 46.579 0 0 0 12.178 59C8.736 54.177 6.522 48.34 6 42h10.465z" opacity=".5"/>
</svg>
