<svg xmlns="http://www.w3.org/2000/svg" width="100" height="100" viewBox="0 0 100 100">
    <g fill="#000" fill-rule="nonzero" opacity=".5">
        <path d="M23.878 31.496h4.114v26.496a2.772 2.772 0 0 0 2.776 2.776h38.641a2.772 2.772 0 0 0 2.776-2.776V31.496h4.114c2.48 0 3.72-3.012 1.949-4.744L52.028.807a2.805 2.805 0 0 0-3.918 0L21.93 26.732c-1.773 1.752-.532 4.764 1.948 4.764zm42.736 23.7h-33.07v-23.7h33.07v23.7zM50.08 6.694l19.449 19.252H30.63L50.079 6.693zM97.598 68.287c-3.169-3.602-8.661-4.173-12.52-1.299L69.844 78.406a6.152 6.152 0 0 1-3.662 1.22H58.15a9.335 9.335 0 0 0 .748-3.642c0-5.059-4.115-9.193-9.193-9.193H2.855a2.772 2.772 0 0 0-2.776 2.776v27.638a2.772 2.772 0 0 0 2.775 2.775h65c3.8 0 7.52-1.319 10.473-3.7l18.15-14.686c4.153-3.366 4.586-9.409 1.121-13.307zM18.327 94.45H5.63V72.362h12.677V94.45h.02zm74.665-17.166L74.842 91.97a11.14 11.14 0 0 1-6.988 2.48H23.878V72.362h25.846a3.646 3.646 0 0 1 3.642 3.642 3.646 3.646 0 0 1-3.642 3.642H35a2.772 2.772 0 0 0-2.776 2.775A2.772 2.772 0 0 0 35 85.197h31.2c2.5 0 5-.827 7.009-2.343l15.236-11.417c4.114-2.776 8.07 2.795 4.547 5.846z"/>
    </g>
</svg>
