<svg xmlns="http://www.w3.org/2000/svg" width="36" height="36" viewBox="0 0 36 36">
  <title>Services</title>
    <g fill="none" fill-rule="evenodd">
        <path d="M0 0h36v36H0z"/>
        <path fill="#FFF" d="M31.231 28.08h-6.897c-.002.811-.047 1.086-.808 1.699l-.086.07c-.409.333-1.016.829-1.836.829-.636 0-1.4-.298-2.298-1.202-1.31-1.316-2.227-2.278-2.728-2.861l.402-.346c.492.574 1.4 1.527 2.701 2.834 1.718 1.727 2.745.89 3.424.335l.089-.072c.598-.482.61-.587.61-1.285h-.014c.064-.366.003-.741-.317-1.045-.832-.793-7.504-7.339-8.31-8.174-.805-.835-4.56-.868-4.585-.861H2v7.581h6.918c3.794 4.623 5.37 6.934 7.2 6.934H31.23c1.287 0 2.308-.806 2.308-2.255 0-1.449-1.141-2.18-2.308-2.18" opacity=".8"/>
        <g fill="#FFF" opacity=".8">
            <path d="M20 12h10v6H20zM20.058 11.212h9.9l-4.95-6.095z"/>
        </g>
    </g>
</svg>
