<?xml version="1.0" encoding="utf-8"?>
<!-- Svg Vector Icons : http://www.onlinewebfonts.com/icon -->
<!DOCTYPE svg PUBLIC "-//W3C//DTD SVG 1.1//EN" "http://www.w3.org/Graphics/SVG/1.1/DTD/svg11.dtd">
<svg version="1.1" xmlns="http://www.w3.org/2000/svg" xmlns:xlink="http://www.w3.org/1999/xlink" x="0px" y="0px" viewBox="0 0 1000 1000" enable-background="new 0 0 1000 1000" xml:space="preserve">
<metadata> Svg Vector Icons : http://www.onlinewebfonts.com/icon </metadata>
<g><g transform="translate(0.000000,511.000000) scale(0.100000,-0.100000)"><path d="M4477.1,4992.4C2914.7,4811.6,1573.6,3945.7,780.9,2610.4C448,2050.5,228.7,1427,134.4,776.7C88.2,449.6,88.2-254.6,136.3-570.2C382.6-2194.1,1387-3575.7,2832-4283.7c344.4-169.3,579.2-255.9,923.6-348.3c1928-506.1,3979.1,213.6,5170.1,1816.3c896.6,1202.6,1191,2720.7,813.9,4173.4c-313.6,1198.7-1087.1,2247.4-2155,2920.8c-215.5,136.6-650.4,350.2-902.4,442.5c-248.2,92.4-713.8,207.8-992.8,250.1C5394.9,5015.5,4765.7,5025.1,4477.1,4992.4z M4798.5,3364.6V2133.2h-161.6c-198.2,0-650.4,46.2-958.2,98.1c-263.6,44.2-781.2,165.5-806.2,190.5c-50,50,344.4,890.9,573.4,1219.9c153.9,219.3,409.8,494.5,586.9,629.2c209.7,157.8,567.6,319.4,725.4,323.2C4796.5,4596.1,4796.5,4596.1,4798.5,3364.6z M5350.7,4565.3c640.7-163.5,1268-860.1,1652.8-1835.6c138.5-350.2,153.9-309.8-134.7-381c-511.8-127-1019.8-200.1-1418.1-204l-252.1-1.9l-1.9,1227.6c0,731.2,5.8,1225.7,17.3,1225.7C5223.7,4596.1,5285.3,4582.6,5350.7,4565.3z M6930.4,4174.7c275.1-130.8,527.2-284.8,781.2-475.3c200.1-152,525.3-452.2,652.3-604.2l77-92.4l-130.8-77c-180.9-107.8-448.3-238.6-646.5-319.4c-150.1-59.6-169.3-63.5-178.9-34.6c-102,294.4-304,738.9-442.5,983.2c-109.7,188.6-319.4,481-467.6,652.3l-155.8,177l140.5-50C6636,4307.4,6803.4,4234.3,6930.4,4174.7z M3409.2,4217c-263.6-300.2-473.3-619.6-654.2-996.7c-102-213.6-227-519.5-252.1-611.9c-5.8-28.9-21.2-52-30.8-52c-67.3,0-625.3,265.5-819.7,388.7l-102,65.4l186.6,196.3c436.8,463.7,990.9,842.8,1579.7,1081.4c103.9,42.3,196.3,77,203.9,77C3530.5,4365.2,3478.5,4299.7,3409.2,4217z M1483.2,2596.9c192.4-115.4,465.6-254,694.6-350.2c130.8-55.8,173.2-80.8,171.2-107.8c-1.9-19.2-30.8-153.9-63.5-298.2c-100.1-438.7-157.8-879.3-186.7-1433.5l-13.5-255.9H1287H488.4l13.5,217.4C538.5,973,700.1,1575.2,963.7,2102.4c127,250.1,329,588.8,352.1,588.8C1321.6,2691.2,1396.6,2648.9,1483.2,2596.9z M8783.3,2543c290.6-457.9,513.8-996.7,617.7-1502.7c46.2-223.2,98.1-638.8,98.1-788.9V151.4l-812,3.8l-813.9,5.8l-11.5,327.1c-19.2,494.5-86.6,983.2-200.1,1464.3c-26.9,113.5-46.2,207.8-44.3,209.7c3.9,3.8,82.7,36.6,175.1,75c207.8,86.6,577.2,271.3,744.6,375.2c69.3,42.3,130.8,77,138.5,78.9C8681.3,2691.2,8729.4,2623.8,8783.3,2543z M2937.8,1988.9c402.1-119.3,1085.2-227,1581.6-252.1l263.6-13.5l9.6-117.4c11.5-153.9,11.5-1333.4,0-1400.8l-11.6-53.9H3636.3H2489.5l13.5,275.1c15.4,309.8,55.8,710,98.1,965.9c52,305.9,132.8,644.6,152,644.6C2764.7,2037,2847.4,2013.9,2937.8,1988.9z M7247.9,1965.8c42.3-148.1,132.8-638.8,163.6-871.6c32.7-265.5,71.2-902.4,55.8-927.4c-5.8-7.7-515.7-15.4-1133.3-15.4H5212.1l-11.6,73.1c-11.5,92.4-11.5,1293,0,1410.4l9.6,88.5l263.6,11.5c477.2,23.1,1092.9,119.3,1504.7,234.7c121.2,34.6,227,63.5,234.7,65.4C7220.9,2035.1,7236.3,2004.3,7247.9,1965.8z M2110.5-362.4c0-284.8,102-979.4,200.1-1381.5c26.9-105.8,42.3-198.2,34.6-203.9c-7.7-5.8-65.4-30.8-128.9-55.8c-186.6-71.2-531.1-242.4-719.6-356c-96.2-57.7-177-105.8-182.8-105.8c-17.3,0-213.6,321.3-319.4,525.3c-132.8,257.8-223.2,481-317.5,792.7c-65.4,219.4-163.6,717.7-163.6,838.9v55.8H1312h798.5V-362.4z M4792.7-304.7c5.8-30.8,7.7-309.8,5.8-621.5l-3.8-567.6l-259.8-13.5c-515.7-26.9-1035.2-107.7-1537.4-238.6c-140.5-36.6-259.7-63.5-261.7-61.6c-7.7,7.7-100.1,429.1-123.1,563.8c-40.4,221.3-78.9,559.9-92.4,775.4l-11.5,215.5h1137.1h1135.2L4792.7-304.7z M7451.8-439.3c-21.2-313.6-67.3-652.3-138.5-1004.4c-36.6-182.8-69.3-340.6-75-348.3c-5.8-7.7-102,9.6-215.5,40.4c-467.5,125.1-1054.4,217.4-1564.3,244.3l-259.8,13.5l-3.9,586.9c-1.9,323.2,0,602.2,5.8,621.5c9.6,30.8,80.8,32.7,1137.2,32.7h1127.5L7451.8-439.3z M9470.2-381.6c-42.3-423.3-205.9-1006.3-390.6-1396.9c-94.3-198.2-292.5-546.5-367.5-646.5l-34.6-46.2l-161.6,96.2c-200.1,121.2-500.3,271.3-723.5,363.7c-92.4,38.5-171.2,71.2-175.1,75c-1.9,1.9,17.3,94.3,42.3,204c96.2,402.1,165.5,871.6,196.2,1293l11.6,186.6h808.1h808.1L9470.2-381.6z M4798.5-3138.9c0-1058.3-3.8-1231.4-28.9-1231.4c-146.2,0-534.9,171.3-736.9,325.2C3722.9-3808.5,3390-3389,3163-2942.6c-125.1,242.4-309.8,700.4-296.3,735c19.2,50,773.5,209.7,1225.7,259.8c280.9,32.7,304,34.6,511.8,36.5l194.3,3.9V-3138.9z M5800.9-1936.3c373.3-40.4,683.1-92.4,1029.4-175.1l286.7-69.3l-13.5-51.9c-25-103.9-190.5-498.4-292.5-700.4c-384.8-754.3-914-1264.2-1462.3-1406.5c-63.5-17.3-125.1-30.8-134.7-30.8c-11.5,0-19.2,469.5-19.2,1231.4l1.9,1231.4h159.7C5445-1907.4,5645.1-1920.9,5800.9-1936.3z M8034.8-2552c111.6-55.8,250.1-132.8,307.9-169.3l102-65.4L8256.1-2985c-461.8-479.1-996.7-842.8-1606.6-1087.1c-117.4-48.1-217.4-86.6-223.2-86.6c-3.8,0,61.6,80.8,148.2,178.9c359.8,406,702.3,1021.7,910.1,1633.6c9.6,28.9,28.9,25,178.9-34.6C7755.8-2417.3,7923.2-2494.3,8034.8-2552z M2554.9-2538.6c209.7-559.9,529.1-1102.5,873.5-1481.6c59.6-65.4,103.9-119.3,96.2-119.3c-30.8,0-367.5,140.5-527.2,219.4c-496.4,250.1-1060.2,683.1-1368,1050.6l-77,92.4l130.8,77c248.2,146.2,723.5,371.4,771.6,363.7C2468.3-2338.4,2512.6-2428.9,2554.9-2538.6z"/></g></g>
</svg>