<?xml version="1.0" encoding="utf-8"?>
<!-- Svg Vector Icons : http://www.onlinewebfonts.com/icon -->
<!DOCTYPE svg PUBLIC "-//W3C//DTD SVG 1.1//EN" "http://www.w3.org/Graphics/SVG/1.1/DTD/svg11.dtd">
<svg version="1.1" xmlns="http://www.w3.org/2000/svg" xmlns:xlink="http://www.w3.org/1999/xlink" x="0px" y="0px" viewBox="0 0 1000 1000" enable-background="new 0 0 1000 1000" xml:space="preserve">
<metadata> Svg Vector Icons : http://www.onlinewebfonts.com/icon </metadata>
<g><g transform="translate(0.000000,512.000000) scale(0.100000,-0.100000)"><path d="M4850.5,5007.9c-91.9-23-254.7-118.7-306.4-180c-26.8-32.6-70.9-101.5-99.6-155.1l-51.7-97.7V2573.6V572.2l51.7-97.7c76.6-145.6,134.1-204.9,268.1-277.7c111.1-59.4,134.1-65.1,283.4-65.1c134.1,0,180,9.6,258.6,47.9c122.6,59.4,237.5,174.3,296.8,296.9l47.9,95.8v2001.4V4575l-47.9,95.8c-61.3,122.6-176.2,237.5-296.8,294.9C5151.2,5015.5,4955.8,5034.7,4850.5,5007.9z"/><path d="M2960.2,3274.6c-40.2-15.3-109.2-51.7-153.2-80.4c-44.1-30.6-101.5-67-128.3-80.4c-97.7-49.8-429-310.3-612.9-480.7C1491.2,2100.6,1043.1,1353.6,849.6,608.6C746.2,208.3,717.5-25.3,717.5-490.7c0-465.4,28.7-704.8,132.1-1099.3c406-1560.9,1702.6-2780.9,3298-3104.6c1384.7-279.6,2803.9,136,3822.7,1118.5C9086.9-2497.8,9527.4-952.3,9150.2,566.5c-187.7,766.1-635.9,1522.6-1223.8,2066.5c-180,168.5-511.4,429-612.9,480.7c-24.9,13.4-88.1,53.6-139.8,86.2c-122.6,82.3-224.1,107.2-386.9,97.7c-151.3-9.6-256.7-55.5-373.5-160.9c-208.8-187.7-249-553.5-86.2-775.7c26.8-36.4,53.6-80.4,59.4-99.6c7.7-19.2,47.9-51.7,91.9-74.7c130.2-65.1,394.5-254.7,549.6-392.6c513.3-455.8,842.7-1034.2,978.7-1719.9c55.5-279.6,59.4-806.3,7.7-1089.7c-233.6-1279.4-1210.4-2258-2491.7-2493.6c-260.5-49.8-783.3-47.9-1053.4,0c-1262.1,227.9-2233.1,1183.6-2484,2451.5c-57.5,287.3-61.3,810.1-7.7,1093.6c153.2,825.5,607.1,1526.4,1294.7,1999.5c90,61.3,199.2,130.2,241.3,151.3c44,23,84.3,55.5,91.9,74.7c5.8,19.2,32.6,63.2,59.4,99.6c70.9,97.7,111.1,254.7,99.6,388.8c-19.2,210.7-145.6,394.5-342.8,496C3318.3,3299.5,3069.4,3314.8,2960.2,3274.6z"/></g></g>
</svg>
