<svg xmlns="http://www.w3.org/2000/svg" width="83" height="72" viewBox="0 0 83 72">
    <g fill="#000" fill-rule="nonzero" opacity=".5">
        <path d="M80.747 8.364H63.021v-5.78c0-1.09-.885-1.972-1.976-1.972a1.974 1.974 0 0 0-1.977 1.972v5.79H43.733v-5.79c0-1.09-.885-1.972-1.976-1.972a1.974 1.974 0 0 0-1.976 1.972v5.79H24.455v-5.79c0-1.09-.884-1.972-1.976-1.972a1.974 1.974 0 0 0-1.976 1.972v5.79H2.767A1.974 1.974 0 0 0 .79 10.346v59.445c0 1.09.885 1.972 1.977 1.972h77.98a1.974 1.974 0 0 0 1.976-1.972V10.336c0-1.089-.884-1.972-1.976-1.972zm-1.976 59.444H4.743v-38.92H78.77v38.92zm0-42.874H4.743V12.309h15.76v4.932c0 1.089.885 1.972 1.976 1.972a1.974 1.974 0 0 0 1.976-1.972v-4.932h15.326v4.932c0 1.089.884 1.972 1.976 1.972a1.974 1.974 0 0 0 1.976-1.972v-4.932h15.335v4.932c0 1.089.885 1.972 1.977 1.972a1.974 1.974 0 0 0 1.976-1.972v-4.932h15.75v12.625z"/>
        <path d="M37.063 56.13a1.978 1.978 0 0 0 2.797 0l14.16-14.133c.771-.771.771-2.02 0-2.792a1.98 1.98 0 0 0-2.797 0L38.457 51.948l-6.087-6.075a1.98 1.98 0 0 0-2.796 0 1.971 1.971 0 0 0 0 2.791l7.49 7.466z"/>
    </g>
</svg>
