<svg xmlns="http://www.w3.org/2000/svg" width="22" height="24" viewBox="0 0 22 24">
  <title>Profile</title>
    <g fill="none" fill-rule="evenodd" opacity=".8">
        <path d="M-7-6h36v36H-7z"/>
        <path fill="#FFF" d="M15.38 16.305c-1.067.896-2.401 1.434-3.856 1.434-1.57 0-3.001-.625-4.104-1.652C3.106 17.153 0 20.081 0 23.535c0 .156.006.311.018.465h21.964c.012-.154.018-.309.018-.465 0-3.237-2.726-6.016-6.62-7.23M10.476 13.565c3.471 0 6.286-3.036 6.286-6.782C16.762 3.036 13.947 0 10.476 0 7.005 0 4.19 3.036 4.19 6.783c0 3.746 2.815 6.782 6.286 6.782"/>
    </g>
</svg>
