<svg xmlns="http://www.w3.org/2000/svg" xmlns:xlink="http://www.w3.org/1999/xlink" viewBox="0 0 215 66">
  <title>Victoria State Government | Health and Human Services</title>
  <defs>
    <path id="aa" d="M62.177.354H.001V65.81h62.176V.354z" />
  </defs>
  <g fill="none" fill-rule="evenodd">
    <path fill="#FFF" d="M106.46 22.252l-6.764 14.554h4.327l.74-1.669h5.07l.739 1.669h4.327v-.003l-6.764-14.55h-1.675zm.74 6.54h.194l1.17 3.144h-2.534l1.17-3.144z" />
    <g transform="translate(0 .105)">
      <path fill="#FFF" d="M62.177.354H.001l10.354 21.802h4.408l3.704 7.936 3.702-7.936h4.443l-6.665 14.552h-2.681L31.088 65.81l14.066-29.615a8.686 8.686 0 0 1-3.76.832c-4.128 0-7.83-3.28-7.83-7.603 0-4.324 3.702-7.602 7.83-7.602 2.786 0 5.3 1.22 6.819 3.432l-3.311 2.017c-.742-1.008-1.792-1.686-3.313-1.686-2.026 0-3.78 1.842-3.78 3.839 0 1.997 1.754 3.839 3.78 3.839 1.52 0 2.571-.679 3.313-1.687l1.897 1.156 3.33-7.01h2.855v10.975h3.974V25.72h3.993v-3.57h-9.127L62.177.354zM27.738 36.697h3.975V22.15h-3.975v14.546z"/>
    </g>
    <path fill="#FFF" d="M69.718 21.927c-4.345 0-8.104 3.278-8.104 7.602 0 4.325 3.76 7.603 8.104 7.603 4.344 0 8.103-3.278 8.103-7.603 0-4.324-3.759-7.602-8.103-7.602m0 11.442c-2.124 0-3.857-1.726-3.857-3.84 0-2.113 1.733-3.839 3.857-3.839 2.123 0 3.857 1.726 3.857 3.84 0 2.113-1.734 3.84-3.857 3.84M91.827 27.551c0-3.044-2.436-5.293-5.513-5.293h-6.641v14.544h3.972v-3.957h1.871l1.81 3.957h4.461l-2.473-4.887c1.402-.97 2.513-2.405 2.513-4.364m-5.65 1.726h-2.532v-3.452h2.533c.896 0 1.48 1.01 1.48 1.726 0 .717-.584 1.726-1.48 1.726M93.775 36.801h3.974V22.257h-3.974zM52.57 47.856l1.39-.552c.224.652.757.943 1.47.943.788 0 1.2-.372 1.2-.852 0-.382-.182-.612-.786-.732l-1.328-.271c-.808-.16-1.774-.612-1.774-1.925 0-1.203.987-2.046 2.568-2.046 1.159 0 2.085.532 2.5 1.424l-1.31.431c-.223-.421-.687-.682-1.22-.682-.685 0-1.096.381-1.096.833 0 .34.15.571.674.682l1.35.29c1.096.241 1.77.882 1.77 1.925 0 1.304-1.077 2.116-2.677 2.116-1.259 0-2.377-.522-2.73-1.584M62.643 49.069c-.525.28-.888.37-1.31.37-1.188 0-1.974-.62-1.974-1.995V45.37h-1.078v-1.083h1.078v-1.514h1.328v1.514h1.643v1.083h-1.643v1.975c0 .6.293.861.736.861.232 0 .574-.099.837-.24l.383 1.103zM68.21 44.287v5.003h-1.329v-.393c-.423.342-.976.543-1.662.543-1.279 0-2.466-1.074-2.466-2.646 0-1.575 1.187-2.658 2.466-2.658.686 0 1.239.2 1.662.552v-.401h1.33zm-1.329 2.507c0-.924-.715-1.506-1.43-1.506-.805 0-1.41.582-1.41 1.506 0 .922.605 1.494 1.41 1.494.715 0 1.43-.572 1.43-1.494zM73.076 49.069c-.524.28-.887.37-1.31.37-1.188 0-1.973-.62-1.973-1.995V45.37h-1.079v-1.083h1.079v-1.514h1.328v1.514h1.642v1.083H71.12v1.975c0 .6.292.861.735.861.232 0 .574-.099.837-.24l.383 1.103zM78.332 47.144h-3.828c.13.722.656 1.163 1.31 1.163.404 0 .847-.072 1.197-.502l1.058.521c-.483.753-1.268 1.113-2.255 1.113-1.47 0-2.628-1.072-2.628-2.647 0-1.573 1.158-2.656 2.598-2.656 1.34 0 2.498 1.033 2.548 2.556v.452zm-3.788-.933h2.428c-.18-.64-.654-.921-1.188-.921-.504 0-1.077.299-1.24.921zM59.44 55.285c0 1.996-1.43 3.489-3.424 3.489-2.014 0-3.586-1.535-3.586-3.509 0-1.965 1.602-3.51 3.586-3.51 1.058 0 2.003.411 2.627 1.154l-1.127.772c-.382-.441-.916-.64-1.5-.64-1.21 0-2.196.95-2.196 2.224 0 1.273.977 2.235 2.236 2.235 1.027 0 1.793-.601 2.025-1.554h-1.763v-1.243h3.092c.018.23.03.421.03.582M65.391 56.127c0 1.574-1.237 2.627-2.709 2.627-1.5 0-2.74-1.053-2.74-2.627 0-1.574 1.24-2.625 2.74-2.625 1.472 0 2.71 1.051 2.71 2.625m-1.29 0c0-.933-.725-1.494-1.42-1.494-.725 0-1.45.561-1.45 1.494 0 .933.725 1.495 1.45 1.495.695 0 1.42-.562 1.42-1.495M71.192 53.61l-2.094 5.015h-1.41l-2.095-5.015h1.43l1.37 3.4 1.37-3.4zM76.54 56.478h-3.828c.131.721.656 1.164 1.31 1.164.404 0 .847-.072 1.197-.503l1.058.522c-.482.753-1.267 1.113-2.254 1.113-1.471 0-2.628-1.072-2.628-2.647 0-1.574 1.157-2.656 2.597-2.656 1.34 0 2.499 1.031 2.548 2.555v.452zm-3.787-.932h2.427c-.18-.64-.654-.921-1.188-.921-.504 0-1.077.299-1.24.921zM80.83 53.591l-.071 1.274h-.291c-1.229 0-1.792.751-1.792 2.145v1.613h-1.33V53.62h1.33v.912c.402-.58.987-.981 1.802-.981.131 0 .232 0 .353.04M86.39 55.576v3.049h-1.329v-2.769c0-.7-.403-1.172-1.017-1.172-.757 0-1.25.5-1.25 1.725v2.216h-1.33v-5.003h1.33v.45c.392-.391.916-.601 1.582-.601 1.208 0 2.014.861 2.014 2.105M95.735 55.496v3.127h-1.32v-2.856c0-.672-.432-1.083-.987-1.083-.704 0-1.167.48-1.167 1.533v2.406h-1.33v-2.856c0-.672-.433-1.083-.986-1.083-.706 0-1.147.48-1.147 1.533v2.406h-1.332v-5.002h1.332v.41c.35-.35.844-.56 1.5-.56.675 0 1.288.29 1.65.822.413-.512 1.028-.823 1.833-.823 1.047 0 1.954.803 1.954 2.026M101.567 56.478h-3.829c.131.721.657 1.164 1.31 1.164.403 0 .847-.072 1.198-.503l1.057.522c-.482.753-1.267 1.113-2.255 1.113-1.47 0-2.627-1.072-2.627-2.647 0-1.574 1.157-2.656 2.598-2.656 1.338 0 2.498 1.031 2.548 2.555v.452zm-3.788-.932h2.427c-.18-.64-.654-.921-1.187-.921-.505 0-1.079.299-1.24.921zM107.296 55.576v3.049h-1.329v-2.769c0-.7-.403-1.172-1.016-1.172-.757 0-1.25.5-1.25 1.725v2.216h-1.33v-5.003h1.33v.45c.392-.391.916-.601 1.582-.601 1.208 0 2.013.861 2.013 2.105M112.03 58.403c-.524.281-.887.37-1.309.37-1.189 0-1.974-.62-1.974-1.994v-2.075h-1.077V53.62h1.077v-1.512h1.328v1.512h1.642v1.084h-1.642v1.976c0 .599.292.86.737.86.23 0 .573-.098.836-.24l.383 1.103z"
    />
    <text fill="#FFF" font-family="VIC-Regular, VIC" font-size="12.505">
      <tspan x="143.811" y="31.063">Health </tspan>
      <tspan x="143.811" y="46.347">and Human </tspan>
      <tspan x="143.811" y="61.632">Services</tspan>
    </text>
    <path stroke="#979797" stroke-linecap="square" stroke-width=".695" d="M128.179 19.105v41.737" />
  </g>
</svg>
