<?xml version="1.0" encoding="UTF-8"?>
<svg width="99px" height="89px" viewBox="0 0 99 89" version="1.1" xmlns="http://www.w3.org/2000/svg" xmlns:xlink="http://www.w3.org/1999/xlink">
    <!-- Generator: Sketch 47.1 (45422) - http://www.bohemiancoding.com/sketch -->
    <title>nrs-logo</title>
    <desc>Created with Sketch.</desc>
    <defs></defs>
    <g id="Page-1" stroke="none" stroke-width="1" fill="#E5E1DE" fill-rule="evenodd">
        <g id="nrs-logo" fill-rule="nonzero" fill="#E5E1DE">
            <path d="M8.25957,0 C3.70557,0 0,3.8983956 0,8.68874725 L0,60.1356374 C0,64.925011 3.70656,68.8234066 8.25957,68.8234066 L76.5567,68.8234066 L76.5567,64.2824505 L8.25957,64.2824505 C6.22611,64.2824505 4.57479,62.4163846 4.57479,60.1356374 L4.57479,8.68874725 C4.57479,6.408 6.22611,4.54193407 8.25957,4.54193407 L8000.9622,4.54193407 C82.99467,4.54193407 84.64698,6.408 84.64698,8.68874725 L84.64698,31.3328901 L89.22078,31.3328901 L89.22078,8.68874725 C89.22177,3.8983956 85.5162,0 80.96319,0 L8.25957,0 Z" id="Shape"></path>
            <path d="M6.11127,25.3072967 C6.11127,23.8627582 6.95673,22.9404835 8.51697,22.9404835 L14.02335,22.9404835 C18.85653,22.9404835 21.82653,25.0354066 21.82653,29.7876154 C21.82653,33.1168022 19.2258,35.022967 16.03899,35.5041538 L21.37113,41.0104176 C21.80475,41.4710659 21.99978,41.9111758 21.99978,42.3503077 C21.99978,43.5239341 21.02463,44.6750659 19.63764,44.6750659 C19.07334,44.6750659 18.315,44.4657692 17.81604,43.878956 L10.85832,35.734967 L10.79298,35.734967 L10.79298,42.3092308 C10.79298,43.8163626 9.79605,44.6750659 8.45262,44.6750659 C7.1082,44.6750659 6.11127,43.8163626 6.11127,42.3082527 L6.11127,25.3082747 L6.11127,25.3072967 Z M10.81476,32.4889121 L14.04513,32.4889121 C15.77862,32.4889121 16.97058,31.4844835 16.97058,29.7876154 C16.97058,28.0506484 15.77862,27.1293516 14.04513,27.1293516 L10.81476,27.1293516 L10.81476,32.4889121 Z M23.22243,25.5977692 C23.22243,24.0798791 23.97087,22.9414615 25.57071,22.9414615 L33.01254,22.9414615 C34.46784,22.9414615 35.15391,23.9742527 35.15391,25.0490989 C35.15391,26.0818901 34.42626,27.1577143 33.01254,27.1577143 L27.73287,27.1577143 L27.73287,31.6057582 L32.65911,31.6057582 C34.13421,31.6057582 34.86285,32.6385495 34.86285,33.7133956 C34.86285,34.7461868 34.11441,35.821033 32.65911,35.821033 L27.73287,35.821033 L27.73287,40.4588132 L33.3036,40.4588132 C34.73811,40.4588132 35.44398,41.4916044 35.44398,42.5674286 C35.44398,43.6002198 34.71732,44.6750659 33.3036,44.6750659 L25.54992,44.6750659 C24.22035,44.6750659 23.24322,43.7684396 23.24322,42.3767143 L23.24322,25.5987473 L23.22243,25.5987473 L23.22243,25.5977692 Z M36.66663,25.3072967 C36.66663,23.8001648 37.63881,22.9404835 38.97135,22.9404835 C40.28211,22.9404835 41.25429,23.8001648 41.25429,25.3072967 L41.25429,40.5086923 L46.6884,40.5086923 C48.2526,40.5086923 48.92976,41.6598242 48.8862,42.6857692 C48.82383,43.6911758 48.04173,44.6750659 46.6884,44.6750659 L39.0555,44.6750659 C37.55466,44.6750659 36.66663,43.7117143 36.66663,42.1830659 L36.66663,25.3072967 Z M56.59335,25.4129231 C57.13389,24.0534725 58.34367,22.9414615 59.94252,22.9414615 C61.60671,22.9414615 62.75214,23.9918571 63.29268,25.4129231 L69.4287,41.6265714 C69.62373,42.0999341 69.6663,42.5116813 69.6663,42.718044 C69.6663,43.8721099 68.67234,44.6750659 67.50612,44.6750659 C66.18744,44.6750659 65.53899,44.0158791 65.21526,43.1297912 L64.28664,40.3287363 L55.5984,40.3287363 L54.66978,43.0887143 C54.34506,44.0158791 53.6976,44.6750659 52.42248,44.6750659 C51.16914,44.6750659 50.10984,43.788978 50.10984,42.5948132 C50.10984,42.1204725 50.26131,41.7498022 50.32665,41.606033 L56.59335,25.4129231 L56.59335,25.4129231 Z M56.93985,36.2288681 L62.88183,36.2288681 L59.98608,27.5968462 L59.92173,27.5968462 L56.93886,36.2288681 L56.93985,36.2288681 Z M72.23535,34.4615824 L66.42603,26.4701648 C66.1492899,26.0731294 66.0008651,25.6025525 66.00033,25.1204945 C66.00033,23.9175275 66.91509,22.9414615 68.21298,22.9414615 C69.02181,22.9414615 69.72471,23.273989 70.12863,23.8334176 L74.55591,30.1025385 L78.9822,23.8334176 C79.38711,23.2524725 80.08902,22.9414615 80.89785,22.9414615 C82.19574,22.9414615 83.11149,23.9380659 83.11149,25.1204945 C83.11149,25.5987473 82.96299,26.076022 82.68579,26.4701648 L76.87449,34.4615824 L76.87449,42.4745165 C76.87449,43.5953297 76.19436,44.6750659 74.57769,44.6750659 C72.93825,44.6750659 72.27792,43.5953297 72.27792,42.4745165 L72.27792,34.4615824 L72.23535,34.4615824 Z M87.4368,32.7363516 C84.89151,33.5481099 82.68282,38.5418901 82.368,44.0970549 C82.26207,46.1567692 82.83033,47.7176923 84.05001,48.6957143 C85.16475,49.6111429 86.55273,49.7979451 87.60411,49.7568681 C87.52095,57.4969341 84.99645,63.7592088 83.88171,66.1524286 C82.15713,65.5069341 80.85231,65.7573077 80.03259,66.172967 C78.01299,67.1715275 77.23485,69.5442088 77.08734,70.7921648 C77.08734,70.8547582 76.3092,77.6168022 79.40097,80.0716374 C80.20089,80.6965934 81.60966,81.300033 83.71341,80.5508681 C99.19503,75.0993736 99.25839,52.7114725 98.92179,45.969967 C98.5644,39.0406813 95.07267,35.6704176 93.03129,34.2757582 C91.03347,32.9446703 88.74063,32.3001538 87.4368,32.7363516 L87.4368,32.7363516 Z M85.64886,46.7611868 C85.0806,46.3024945 84.82815,45.4496593 84.9123,44.2427802 C85.20732,38.8333407 87.35265,35.3995055 88.21494,35.1295714 C88.59312,35.0464396 90.21375,35.3584286 91.91754,36.6269231 C93.78864,38.0421209 96.10326,40.8304615 96.3765,46.1362308 C96.60816,50.6097033 97.0497,73.2274396 82.85112,78.2202418 C81.75717,78.6153626 81.25227,78.365967 80.97903,78.1371099 C79.56927,77.0133626 79.38018,72.9565275 79.59006,71.1051319 C79.69599,70.2718571 80.24346,68.8987143 81.14733,68.441 C81.82053,68.1084725 82.70361,68.2747363 83.81835,68.9202308 L84.93309,69.5647473 L85.56471,68.441 C85.77459,68.086956 90.44541,59.5771868 90.12861,48.3416703 L90.08703,46.7807473 L88.55154,47.1553297 C88.04664,47.2805165 86.49036,47.4467802 85.64886,46.7602088 L85.64886,46.7611868 Z" id="Shape"></path>
            <path d="M90.29493,35.1774945 C90.15237,35.3564725 87.01803,39.4573187 86.78043,43.1033846 C86.75667,43.2813846 86.92299,43.4398242 87.13683,43.4603626 C87.331864,43.4977544 87.5276721,43.3994229 87.61203,43.2217253 C87.6348,43.163044 89.98605,37.0993077 91.55223,35.733011 C91.64826,35.6332527 91.69578,35.5149121 91.64826,35.3955934 C91.6049723,35.2704135 91.4953305,35.1790225 91.36314,35.1579341 L90.76914,35.0190549 C90.57906,34.9994945 90.38997,35.0581758 90.29394,35.1774945 L90.29493,35.1774945 Z M82.05912,74.9311538 C81.37998,75.248033 75.9033,77.8661978 74.72025,80.9068681 C74.4388544,80.9920897 74.1668778,81.1051344 73.90845,81.2442857 C73.20852,81.6452747 72.68184,82.0892967 72.26604,82.5323407 C72.09081,82.4902857 71.93736,82.4267143 71.74035,82.4051978 C70.9731,82.3426044 70.14051,82.5528791 69.39603,82.9118132 C68.71689,82.0257253 67.79619,81.7509011 66.8547,81.5611648 C66.48246,81.4770549 66.10923,81.7303626 66.02211,82.0892967 C66.00033,82.1313516 66.00033,82.1734066 66.00033,82.2164396 C66.00033,82.5323407 66.2409,82.8071648 66.56958,82.8912747 C67.29228,83.038956 67.81896,83.1651209 68.23476,83.6511978 C67.73085,84.0521868 67.29228,84.4962088 67.00716,84.9597912 C66.70026,85.4673846 66.5478,85.9524835 66.5478,86.3955275 C66.5478,86.7544615 66.6567,87.0928571 66.8547,87.4097363 C67.29228,88.0845714 68.10309,88.3173407 68.87034,88.0004615 C69.65838,87.663044 70.33851,86.775978 70.33851,85.572033 C70.33851,85.2981868 70.29396,85.0028242 70.22862,84.6859451 C70.18506,84.4746923 70.11972,84.327011 70.05339,84.1372747 C70.49097,83.926022 70.97409,83.7568242 71.41167,83.7568242 C71.071435,84.4102779 70.8913669,85.1335613 70.88598,85.8683736 C70.88598,86.1637363 70.90776,86.417044 70.9731,86.6067802 C71.14833,87.3667033 71.6958,87.9163516 72.4185,88.0845714 C73.0527613,88.2467527 73.7259653,88.0522295 74.17179,87.577956 C74.41335,87.3246484 74.69748,86.8395495 74.69748,86.0581099 C74.69748,85.6150659 74.61036,85.0654176 74.34702,84.4111209 C74.1597424,83.961445 73.8845544,83.5526602 73.5372,83.2081538 C73.82133,82.9538681 74.151,82.7015385 74.54502,82.4482308 C74.72025,84.5167473 75.99042,85.8263187 77.21802,86.0160549 C78.09417,86.1431978 78.81687,85.7206923 79.07922,84.9177363 C79.14555,84.7064835 79.18911,84.4746923 79.18911,84.2429011 C79.18911,83.2502088 78.61986,82.1108132 77.69916,81.4134835 C77.28336,81.0966044 76.84479,80.9274066 76.36266,80.8217802 C77.45859,79.0701429 80.57016,77.1277912 82.71648,76.1350989 C82.8824398,76.0583927 83.010511,75.9193769 83.0722305,75.7489469 C83.1339501,75.578517 83.1242046,75.3907927 83.04516,75.2274945 C82.82637,74.9106154 82.40958,74.7629341 82.05912,74.9311538 L82.05912,74.9311538 Z M68.01597,86.6703516 C67.9711526,86.585939 67.9483545,86.4918164 67.94964,86.3965055 C67.94964,86.1216813 68.12487,85.8048022 68.21298,85.6571209 C68.36643,85.4028352 68.58522,85.171044 68.82678,84.9392527 C68.82678,84.9597912 68.84856,84.9813077 68.84856,85.0028242 C68.89212,85.1925604 68.9139,85.3822967 68.9139,85.5505165 C68.9139,86.1852527 68.607,86.6282967 68.3001,86.7339231 C68.14665,86.818033 68.0823,86.7544615 68.01597,86.6703516 L68.01597,86.6703516 Z M72.72639,86.7974945 C72.52839,86.7544615 72.37593,86.5647253 72.31059,86.3114176 C72.26604,86.1842747 72.26604,86.0160549 72.26604,85.8468571 C72.26604,85.4243516 72.37494,84.8971978 72.66006,84.3475495 C72.79173,84.5167473 72.90162,84.6859451 72.98874,84.9177363 C73.18674,85.4038132 73.25208,85.7832857 73.25208,86.0796264 C73.25208,86.374989 73.18575,86.5862418 73.07685,86.6918681 C72.9871968,86.7858876 72.8539007,86.8260622 72.72639,86.7974945 L72.72639,86.7974945 Z M77.39325,84.7064835 C76.80123,84.6223736 75.94686,83.7353077 75.88152,82.1518901 C76.23198,82.2154615 76.53789,82.3426044 76.75767,82.5108242 C77.37147,82.9753846 77.72193,83.7353077 77.72193,84.2634396 C77.72193,84.3690659 77.69916,84.4531758 77.67738,84.5372857 C77.6556,84.6644286 77.59026,84.728 77.39325,84.7064835 L77.39325,84.7064835 Z M13.74516,8.39631868 L13.74516,15.3852637 L13.41846,14.9872088 L8.11206,7.74789011 C7.92792,7.47502198 7.43886,7.24518681 7.19334,7.24518681 C6.52014,7.24518681 6.11127,7.6852967 6.11127,8.41685714 L6.11127,18.1471978 C6.11127,18.8582198 6.53994,19.3188681 7.19334,19.3188681 C7.84674,19.3188681 8.27442,18.8787582 8.27442,18.1471978 L8.27442,11.2629011 L8.60112,11.659978 L13.88772,18.8171429 C14.09265,19.089033 14.56191,19.3188681 14.80743,19.3188681 C15.48063,19.3188681 15.88851,18.8787582 15.88851,18.1471978 L15.88851,8.41685714 C15.88851,7.70583516 15.45984,7.24518681 14.80743,7.24518681 C14.15403,7.22464835 13.74516,7.6852967 13.74516,8.39631868 L13.74516,8.39631868 Z M20.889,8.55378022 L17.22204,17.801956 C17.1500902,17.9587012 17.1123127,18.1286426 17.11116,18.3007473 C17.11116,18.8826703 17.622,19.3188681 18.28926,19.3188681 C18.8892,19.3188681 19.24461,19.0694725 19.42182,18.5296044 L19.99998,16.8249121 L25.31133,16.8249121 L25.8885,18.5501429 C26.08848,19.0694725 26.44488,19.3188681 27.04482,19.3188681 C27.66654,19.3188681 28.11105,18.9032088 28.11105,18.3633407 C28.11105,18.2802088 28.08927,18.0503736 27.9774,17.801956 L24.4233,8.55378022 C24.11244,7.72246154 23.46795,7.24420879 22.64526,7.24420879 C21.73446,7.24420879 21.13452,7.93078022 20.88999,8.55475824 L20.889,8.55378022 Z M22.64427,9.1982967 L22.84425,9.69708791 L24.59952,14.8512637 L20.64447,14.8512637 L22.64427,9.1982967 Z M29.14857,7.24420879 C28.47834,7.24420879 28.11105,7.77234066 28.11105,8.2593956 C28.11105,8.74645055 28.37043,9.27458242 29.14857,9.27458242 L31.24341,9.27458242 L31.24341,18.1354615 C31.24341,18.8533297 31.67604,19.3188681 32.38884,19.3188681 C33.10164,19.3188681 33.53427,18.8748462 33.53427,18.1354615 L33.53427,9.27458242 L35.6301,9.27458242 C36.38547,9.27458242 36.66663,8.74645055 36.66663,8.2593956 C36.66663,7.77331868 36.29934,7.24420879 35.6301,7.24420879 L29.14857,7.24420879 Z M36.66663,8.41685714 L36.66663,18.1471978 C36.66663,18.8582198 37.12797,19.3188681 37.88928,19.3188681 C38.6496,19.3188681 39.11094,18.8787582 39.11094,18.1471978 L39.11094,8.41587912 C39.11094,7.70485714 38.6496,7.24420879 37.88928,7.24420879 C37.12698,7.24420879 36.66663,7.70485714 36.66663,8.41685714 L36.66663,8.41685714 Z M40.3326,13.2815385 C40.3326,16.7848132 42.64623,19.3188681 45.84294,19.3188681 C49.02084,19.3188681 51.33348,16.7848132 51.33348,13.2815385 C51.33348,9.84085714 48.96045,7.24518681 45.84294,7.24518681 C42.64524,7.22367033 40.33359,9.77826374 40.33359,13.2815385 L40.3326,13.2815385 Z M42.56505,13.2815385 C42.56505,11.2629011 43.57089,9.24328571 45.82314,9.24328571 C48.07539,9.24328571 49.08024,11.2834396 49.08024,13.2825165 C49.08024,15.7334396 47.79324,17.3207692 45.82314,17.3207692 C43.85304,17.3207692 42.56604,15.7334396 42.56604,13.2815385 L42.56505,13.2815385 Z M61.37604,8.39631868 L61.37604,15.3852637 L61.04934,14.9872088 L55.77363,7.74789011 C55.59048,7.47502198 55.10142,7.24518681 54.85788,7.24518681 C54.18468,7.24518681 53.77779,7.6852967 53.77779,8.41685714 L53.77779,18.1471978 C53.77779,18.8582198 54.20547,19.3188681 54.85689,19.3188681 C55.53009,19.3188681 55.95777,18.8787582 55.95777,18.1471978 L55.95777,11.2629011 L56.28348,11.659978 L61.56018,18.8171429 C61.76313,19.089033 62.2314,19.3188681 62.47593,19.3188681 C63.14814,19.3188681 63.55503,18.8787582 63.55503,18.1471978 L63.55503,8.41685714 C63.55503,7.70583516 63.14814,7.24518681 62.47593,7.24518681 C61.78293,7.22464835 61.37604,7.6852967 61.37604,8.39631868 L61.37604,8.39631868 Z M68.54067,8.55378022 L64.88955,17.801956 C64.8172029,17.9586092 64.7790846,18.1285657 64.77768,18.3007473 C64.77768,18.8826703 65.28951,19.3188681 65.93598,19.3188681 C66.53691,19.3188681 66.89331,19.0694725 67.07151,18.5296044 L67.65066,16.8249121 L72.97191,16.8249121 L73.55106,18.5501429 C73.72926,19.0694725 74.10744,19.3188681 74.70936,19.3188681 C75.33306,19.3188681 75.77856,18.9032088 75.77856,18.3633407 C75.77856,18.2802088 75.75579,18.0503736 75.64392,17.801956 L72.0819,8.55378022 C71.77005,7.72246154 71.12358,7.24420879 70.2999,7.24420879 C69.38712,7.24420879 68.7852,7.93078022 68.54067,8.55475824 L68.54067,8.55378022 Z M70.2999,9.1982967 L70.50087,9.69708791 L72.28188,14.8512637 L68.31792,14.8512637 L70.2999,9.1982967 Z" id="Shape"></path>
            <path d="M75.77757,8.40805495 L75.77757,18.0709121 C75.77757,18.8533297 76.18941,19.3188681 76.87449,19.3188681 L80.88993,19.3188681 C81.5166,19.3188681 81.85023,18.8327912 81.88884,18.3467143 C81.88884,18.0503736 81.79083,17.7755495 81.61461,17.5848352 C81.4265786,17.389024 81.1630222,17.2816045 80.88993,17.2894725 L77.8734,17.2894725 L77.8734,8.42859341 C77.8734,7.71072527 77.48136,7.24518681 76.83588,7.24518681 C76.16961,7.22367033 75.77757,7.68920879 75.77757,8.40903297 L75.77757,8.40805495 Z M6.1776,51.7911538 C6.1776,54.5609121 8.63973,55.2112967 10.81278,55.7990879 C12.4542,56.2391978 14.0283,56.6597473 14.0283,58.0025714 C14.0283,59.3453956 12.9195,60.2471319 11.27808,60.2471319 C10.39104,60.2471319 9.57033,59.9742637 8.86149,59.7434505 C8.30709,59.5546923 7.77447,59.3874505 7.33095,59.3874505 C6.48846,59.3874505 6.11127,60.0378352 6.11127,60.6256264 C6.11127,62.3244505 9.48222,62.7870549 11.45628,62.7870549 C14.27283,62.7870549 17.11116,61.1283297 17.11116,57.9605165 C17.11116,54.7076154 14.36094,53.9310659 12.14334,53.3227363 C10.59102,52.9021868 9.26046,52.5246703 9.26046,51.3921209 C9.26046,50.3642198 10.21383,49.6082088 11.54439,49.6082088 C12.38688,49.6082088 12.98583,49.8184835 13.54023,50.0072418 C13.94019,50.1539451 14.29461,50.2801099 14.6718,50.2801099 C15.46974,50.2801099 15.89148,49.6082088 15.89148,48.9793407 C15.89148,47.5729451 12.96405,47.0898022 11.63349,47.0898022 C8.92782,47.0692637 6.1776,48.684956 6.1776,51.7911538 L6.1776,51.7911538 Z M19.77327,47.0898022 C18.52587,47.0898022 18.33381,48.0531538 18.33381,48.6155165 L18.33381,60.3146154 C18.33381,61.0774725 18.89217,61.5791978 19.75248,61.5791978 L25.62021,61.5791978 C26.50131,61.5791978 26.8884,60.9767363 26.8884,60.4349121 C26.8884,59.9136264 26.56665,59.2906264 25.6212,59.2906264 L21.06324,59.2906264 L21.06324,55.4176593 L25.14798,55.4176593 C26.05086,55.4176593 26.45874,54.8161758 26.45874,54.2743516 C26.45874,53.711989 26.05086,53.1300659 25.14798,53.1300659 L21.06324,53.1300659 L21.06324,49.3773956 L25.42716,49.3773956 C26.30826,49.3773956 26.69535,48.7759121 26.69535,48.2331099 C26.69535,47.7118242 26.37261,47.0898022 25.42716,47.0898022 L19.77426,47.0898022 L19.77327,47.0898022 Z M30.76821,47.1113187 C29.59407,47.1113187 29.33271,47.883956 29.33271,48.549989 L29.33271,61.3483846 C29.33271,62.2286044 29.85543,62.7860769 30.70287,62.7860769 C31.55031,62.7860769 32.09382,62.2286044 32.09382,61.3483846 L32.09382,56.0651099 L32.65911,56.0651099 L37.87641,62.3146703 C38.15955,62.656978 38.61594,62.7870549 38.94165,62.7870549 C39.7683,62.7870549 40.33359,62.0564725 40.33359,61.3689231 C40.33359,61.1117033 40.20291,60.8544835 39.96333,60.5962857 L35.59446,55.980022 L36.24687,55.8724396 C38.72484,55.4861209 40.22469,54.0044176 40.22469,51.8997143 C40.22469,48.7211429 38.41992,47.0898022 34.83315,47.0898022 L30.7692,47.0898022 L30.7692,47.1113187 L30.76821,47.1113187 Z M32.09481,49.5593077 L34.81137,49.5593077 C36.333,49.5593077 37.31112,50.4825604 37.31112,51.8997143 C37.31112,53.3178462 36.31122,54.2616374 34.81137,54.2616374 L32.09382,54.2616374 L32.09382,49.5593077 L32.09481,49.5593077 Z M50.06232,48.0502198 C50.04252,48.0922747 46.43397,58.2861978 46.43397,58.2861978 L42.80661,48.0071868 C42.54228,47.4311319 42.15717,47.1328352 41.65128,47.1328352 C41.00184,47.1328352 40.33359,47.6228242 40.33359,48.4120879 C40.33359,48.6683297 40.37319,48.860022 40.45536,49.1162637 L45.15786,61.6985165 C45.4212,62.4026923 45.72513,62.7870549 46.43496,62.7870549 C47.1636,62.7870549 47.44773,62.4026923 47.73186,61.677978 L52.43436,49.0732308 C52.53534,48.816989 52.55514,48.6252967 52.55514,48.3690549 C52.55514,47.5807692 51.8661,47.0898022 51.23844,47.0898022 C50.73156,47.1328352 50.34645,47.4311319 50.06232,48.0492418 L50.06232,48.0502198 Z M55.00044,48.5196703 L55.00044,61.3581648 C55.00044,62.2325165 55.46178,62.7860769 56.232,62.7860769 C56.98242,62.7860769 57.44475,62.2325165 57.44475,61.3581648 L57.44475,48.5186923 C57.44475,47.6443407 56.98242,47.0907802 56.232,47.0907802 C55.46178,47.0907802 55.00044,47.6443407 55.00044,48.5186923 L55.00044,48.5196703 Z M59.88906,54.9491868 C59.88906,59.496989 63.03528,62.7870549 67.3596,62.7870549 C69.00696,62.7870549 72.1116,62.3048901 72.1116,60.5023956 C72.1116,60.1669341 71.76906,59.3287692 70.95528,59.3287692 C70.65531,59.3287692 70.33455,59.4754725 69.94944,59.6427143 C69.32871,59.9155824 68.5575,60.2715824 67.3596,60.2715824 C64.16982,60.2715824 62.75709,57.6309231 62.75709,55.0117802 C62.75709,52.3290659 64.1916,49.6258132 67.3596,49.6258132 C68.53671,49.6258132 69.26436,49.9192198 69.84252,50.150033 C70.20585,50.2967363 70.50582,50.4013846 70.82658,50.4013846 C71.51166,50.4013846 71.89677,49.8145714 71.89677,49.2482967 C71.89677,47.6766154 69.11487,47.0898022 67.3596,47.0898022 C63.0135,47.1113187 59.88906,50.4013846 59.88906,54.9491868 L59.88906,54.9491868 Z M75.99537,47.0898022 C74.74896,47.0898022 74.55591,48.0531538 74.55591,48.6155165 L74.55591,60.3146154 C74.55591,61.0774725 75.11427,61.5791978 75.97458,61.5791978 L81.8433,61.5791978 C82.7244,61.5791978 83.1105,60.9767363 83.1105,60.4349121 C83.1105,59.9136264 82.76697,59.2906264 81.8433,59.2906264 L77.28534,59.2906264 L77.28534,55.4176593 L81.37008,55.4176593 C82.27296,55.4176593 82.68084,54.8161758 82.68084,54.2743516 C82.68084,53.711989 82.27296,53.1300659 81.37008,53.1300659 L77.28534,53.1300659 L77.28534,49.3773956 L81.64926,49.3773956 C82.53036,49.3773956 82.91745,48.7759121 82.91745,48.2331099 C82.91745,47.7118242 82.57392,47.0898022 81.65025,47.0898022 L75.99537,47.0898022 L75.99537,47.0898022 Z" id="Shape"></path>
        </g>
    </g>
</svg>
