<svg xmlns="http://www.w3.org/2000/svg" width="100" height="91" viewBox="0 0 100 91">
    <g fill-rule="nonzero">
        <path d="M8.343 0C3.743 0 0 3.986 0 8.884v52.603c0 4.897 3.744 8.883 8.343 8.883H77.33v-4.643H8.343c-2.054 0-3.722-1.908-3.722-4.24V8.884c0-2.332 1.668-4.24 3.722-4.24H81.78c2.053 0 3.722 1.908 3.722 4.24v23.153h4.62V8.884C90.123 3.986 86.38 0 81.781 0H8.343z"/>
        <path d="M6.173 25.876c0-1.477.854-2.42 2.43-2.42h5.562c4.882 0 7.882 2.142 7.882 7.001 0 3.404-2.627 5.353-5.846 5.845l5.386 5.63c.438.471.635.921.635 1.37 0 1.2-.985 2.377-2.386 2.377-.57 0-1.336-.214-1.84-.814l-7.028-8.327h-.066v6.722c0 1.541-1.007 2.419-2.364 2.419-1.358 0-2.365-.878-2.365-2.42V25.877zm4.751 7.343h3.263c1.751 0 2.955-1.027 2.955-2.762 0-1.776-1.204-2.718-2.955-2.718h-3.263v5.48zM23.457 26.173c0-1.552.756-2.716 2.372-2.716h7.517c1.47 0 2.163 1.056 2.163 2.155 0 1.056-.735 2.156-2.163 2.156h-5.333v4.548h4.976c1.49 0 2.226 1.056 2.226 2.155 0 1.056-.756 2.155-2.226 2.155h-4.976v4.742h5.627c1.449 0 2.162 1.056 2.162 2.156 0 1.056-.734 2.155-2.162 2.155h-7.832c-1.343 0-2.33-.927-2.33-2.35V26.174h-.021zM37.037 25.876c0-1.541.982-2.42 2.328-2.42 1.324 0 2.306.879 2.306 2.42v15.543h5.489c1.58 0 2.264 1.177 2.22 2.226-.063 1.028-.853 2.034-2.22 2.034h-7.71c-1.516 0-2.413-.985-2.413-2.548V25.876zM57.165 25.984c.546-1.39 1.768-2.527 3.383-2.527 1.681 0 2.838 1.074 3.384 2.527l6.198 16.578c.197.484.24.905.24 1.116 0 1.18-1.004 2.001-2.182 2.001-1.332 0-1.987-.674-2.314-1.58l-.938-2.864H56.16l-.938 2.822c-.328.948-.982 1.622-2.27 1.622-1.266 0-2.336-.906-2.336-2.127 0-.485.153-.864.219-1.011l6.33-16.557zm.35 11.059h6.002l-2.925-8.826h-.065l-3.013 8.826zM72.965 35.236l-5.868-8.171a2.438 2.438 0 0 1-.43-1.38c0-1.23.924-2.228 2.235-2.228.817 0 1.527.34 1.935.912l4.472 6.41 4.471-6.41c.409-.594 1.118-.912 1.935-.912 1.311 0 2.236 1.019 2.236 2.228 0 .489-.15.977-.43 1.38l-5.87 8.171v8.193c0 1.146-.687 2.25-2.32 2.25-1.656 0-2.323-1.104-2.323-2.25v-8.193h-.043zM88.32 33.472c-2.571.83-4.802 5.936-5.12 11.616-.107 2.106.467 3.702 1.699 4.702 1.126.936 2.528 1.127 3.59 1.085-.084 7.914-2.634 14.317-3.76 16.764-1.742-.66-3.06-.404-3.888.021-2.04 1.021-2.826 3.447-2.975 4.723 0 .064-.786 6.978 2.337 9.488.808.639 2.231 1.256 4.356.49 15.638-5.574 15.702-28.465 15.362-35.358-.361-7.085-3.888-10.531-5.95-11.957-2.018-1.361-4.334-2.02-5.651-1.574m-1.806 14.34c-.574-.469-.829-1.341-.744-2.575.298-5.531 2.465-9.042 3.336-9.318.382-.085 2.019.234 3.74 1.531 1.89 1.447 4.228 4.298 4.504 9.723.234 4.574.68 27.7-13.662 32.805-1.105.404-1.615.149-1.891-.085-1.424-1.149-1.615-5.297-1.403-7.19.107-.852.66-2.256 1.573-2.724.68-.34 1.572-.17 2.698.49l1.126.659.638-1.149c.212-.362 4.93-9.063 4.61-20.551l-.042-1.596-1.551.383c-.51.128-2.082.298-2.932-.404"/>
        <path d="M91.207 35.968c-.144.183-3.31 4.376-3.55 8.104-.024.182.144.344.36.365a.438.438 0 0 0 .48-.244c.023-.06 2.398-6.26 3.98-7.657.097-.102.145-.223.097-.345a.366.366 0 0 0-.288-.243l-.6-.142c-.192-.02-.383.04-.48.162M82.888 76.615c-.686.324-6.218 3.001-7.413 6.11a4.421 4.421 0 0 0-.82.345c-.707.41-1.239.864-1.659 1.317-.177-.043-.332-.108-.531-.13-.775-.064-1.616.151-2.368.518-.686-.906-1.616-1.187-2.567-1.381-.376-.086-.753.173-.841.54-.022.043-.022.086-.022.13 0 .323.243.604.575.69.73.151 1.262.28 1.682.777-.509.41-.952.864-1.24 1.338-.31.519-.464 1.015-.464 1.468 0 .367.11.713.31 1.037.442.69 1.261.928 2.036.604.796-.345 1.483-1.252 1.483-2.483 0-.28-.045-.582-.111-.906-.044-.216-.11-.367-.177-.561.442-.216.93-.389 1.372-.389a4.796 4.796 0 0 0-.531 2.159c0 .302.022.561.088.755.177.777.73 1.339 1.46 1.511a1.801 1.801 0 0 0 1.771-.518c.244-.259.531-.755.531-1.554 0-.453-.088-1.015-.354-1.684a3.782 3.782 0 0 0-.818-1.23c.287-.26.62-.518 1.018-.777.177 2.115 1.46 3.454 2.7 3.648.885.13 1.615-.302 1.88-1.123.067-.216.111-.453.111-.69 0-1.015-.575-2.18-1.505-2.893-.42-.324-.863-.497-1.35-.605 1.107-1.791 4.25-3.777 6.418-4.792a.694.694 0 0 0 .332-.928c-.221-.324-.642-.475-.996-.303M68.703 88.618a.586.586 0 0 1-.067-.28c0-.281.177-.605.266-.756.155-.26.376-.497.62-.734 0 .021.022.043.022.065.044.194.066.388.066.56 0 .649-.31 1.102-.62 1.21-.155.086-.22.021-.287-.065m4.758.13c-.2-.044-.354-.238-.42-.497-.045-.13-.045-.302-.045-.475 0-.432.11-.971.398-1.533.133.173.244.346.332.583.2.497.266.885.266 1.188 0 .302-.067.518-.177.626a.373.373 0 0 1-.354.108m4.714-2.138c-.598-.086-1.461-.993-1.527-2.612.354.065.663.195.885.367.62.475.974 1.252.974 1.792 0 .108-.023.194-.045.28-.022.13-.088.195-.287.173M13.884 8.585v7.146l-.33-.407-5.36-7.402c-.186-.279-.68-.514-.928-.514-.68 0-1.093.45-1.093 1.198v9.949c0 .727.433 1.198 1.093 1.198.66 0 1.092-.45 1.092-1.198v-7.039l.33.406 5.34 7.318c.207.278.681.513.929.513.68 0 1.092-.45 1.092-1.198V8.606c0-.727-.433-1.198-1.092-1.198-.66-.021-1.073.45-1.073 1.177M21.1 8.746l-3.704 9.456a1.255 1.255 0 0 0-.112.51c0 .595.516 1.041 1.19 1.041.606 0 .965-.255 1.144-.807l.584-1.743h5.365l.583 1.764c.202.531.562.786 1.168.786.628 0 1.077-.425 1.077-.977 0-.085-.022-.32-.135-.574L24.67 8.746c-.314-.85-.965-1.339-1.796-1.339-.92 0-1.526.702-1.773 1.34zm1.773.659l.202.51 1.773 5.27h-3.995l2.02-5.78zM29.443 7.407c-.677 0-1.048.54-1.048 1.038s.262 1.038 1.048 1.038h2.116v9.06c0 .734.437 1.21 1.157 1.21s1.157-.454 1.157-1.21v-9.06h2.117c.763 0 1.047-.54 1.047-1.038 0-.497-.371-1.038-1.047-1.038h-6.547zM37.037 8.606v9.949c0 .727.466 1.198 1.235 1.198.768 0 1.234-.45 1.234-1.198v-9.95c0-.727-.466-1.198-1.234-1.198-.77 0-1.235.471-1.235 1.199M40.74 13.58c0 3.582 2.337 6.173 5.566 6.173 3.21 0 5.546-2.591 5.546-6.173 0-3.518-2.397-6.172-5.546-6.172-3.23-.022-5.565 2.59-5.565 6.172m2.254 0c0-2.064 1.016-4.129 3.291-4.129s3.29 2.086 3.29 4.13c0 2.506-1.3 4.129-3.29 4.129s-3.29-1.623-3.29-4.13M61.996 8.585v7.146l-.33-.407-5.329-7.402c-.185-.279-.679-.514-.925-.514-.68 0-1.091.45-1.091 1.198v9.949c0 .727.432 1.198 1.09 1.198.68 0 1.112-.45 1.112-1.198v-7.039l.329.406 5.33 7.318c.205.278.678.513.925.513.679 0 1.09-.45 1.09-1.198V8.606c0-.727-.411-1.198-1.09-1.198-.7-.021-1.111.45-1.111 1.177M69.233 8.746l-3.688 9.456a1.253 1.253 0 0 0-.113.51c0 .595.517 1.041 1.17 1.041.607 0 .967-.255 1.147-.807l.585-1.743h5.375l.585 1.764c.18.531.562.786 1.17.786.63 0 1.08-.425 1.08-.977 0-.085-.023-.32-.136-.574L72.81 8.746c-.315-.85-.968-1.339-1.8-1.339-.922 0-1.53.702-1.777 1.34zm1.777.659l.203.51 1.799 5.27h-4.004l2.002-5.78z"/>
        <path d="M76.543 8.597v9.88c0 .8.416 1.276 1.108 1.276h4.056c.633 0 .97-.497 1.009-.994 0-.303-.099-.584-.277-.779a.97.97 0 0 0-.732-.302H78.66v-9.06c0-.734-.396-1.21-1.048-1.21-.673-.022-1.069.454-1.069 1.19M6.24 52.955c0 2.832 2.487 3.497 4.682 4.098 1.658.45 3.248.88 3.248 2.253 0 1.373-1.12 2.295-2.778 2.295-.896 0-1.725-.279-2.441-.515-.56-.193-1.098-.364-1.546-.364-.851 0-1.232.665-1.232 1.266 0 1.737 3.405 2.21 5.399 2.21 2.845 0 5.712-1.696 5.712-4.935 0-3.326-2.778-4.12-5.018-4.742-1.568-.43-2.912-.816-2.912-1.974 0-1.051.963-1.824 2.307-1.824.851 0 1.456.215 2.016.408.404.15.762.279 1.143.279.806 0 1.232-.687 1.232-1.33 0-1.438-2.957-1.932-4.301-1.932-2.733-.021-5.511 1.631-5.511 4.807M19.973 48.148c-1.26 0-1.454.985-1.454 1.56V61.67c0 .78.564 1.293 1.433 1.293h5.927c.89 0 1.281-.616 1.281-1.17 0-.533-.325-1.17-1.28-1.17h-4.604v-3.96h4.126c.912 0 1.324-.615 1.324-1.169 0-.575-.412-1.17-1.324-1.17h-4.126v-3.837h4.408c.89 0 1.281-.615 1.281-1.17 0-.533-.326-1.169-1.281-1.169h-5.71zM31.079 48.17c-1.186 0-1.45.79-1.45 1.471v13.086c0 .9.528 1.47 1.384 1.47.856 0 1.405-.57 1.405-1.47v-5.402h.571l5.27 6.39c.286.35.747.483 1.076.483.835 0 1.406-.747 1.406-1.45 0-.263-.132-.526-.374-.79l-4.413-4.72.659-.11c2.503-.395 4.018-1.91 4.018-4.062 0-3.25-1.823-4.918-5.446-4.918H31.08v.022zm1.34 2.503h2.744c1.537 0 2.525.944 2.525 2.393 0 1.45-1.01 2.415-2.525 2.415h-2.745v-4.808zM50.568 49.13c-.02.043-3.665 10.466-3.665 10.466l-3.664-10.51c-.267-.589-.656-.894-1.167-.894-.656 0-1.331.501-1.331 1.308 0 .262.04.458.123.72l4.75 12.865c.266.72.573 1.113 1.29 1.113.736 0 1.023-.393 1.31-1.134l4.75-12.888c.102-.262.122-.458.122-.72 0-.806-.696-1.308-1.33-1.308-.512.044-.901.349-1.188.981M55.556 49.61v13.127c0 .894.466 1.46 1.244 1.46.758 0 1.225-.566 1.225-1.46V49.609c0-.894-.467-1.46-1.225-1.46-.778 0-1.244.566-1.244 1.46M60.494 56.184c0 4.65 3.178 8.014 7.546 8.014 1.664 0 4.8-.493 4.8-2.336 0-.343-.346-1.2-1.168-1.2-.303 0-.627.15-1.016.321-.627.279-1.406.643-2.616.643-3.222 0-4.649-2.7-4.649-5.378 0-2.743 1.449-5.507 4.649-5.507 1.189 0 1.924.3 2.508.536.367.15.67.257.994.257.692 0 1.081-.6 1.081-1.179 0-1.607-2.81-2.207-4.583-2.207-4.39.022-7.546 3.386-7.546 8.036M76.763 48.148c-1.259 0-1.454.985-1.454 1.56V61.67c0 .78.564 1.293 1.433 1.293h5.928c.89 0 1.28-.616 1.28-1.17 0-.533-.347-1.17-1.28-1.17h-4.604v-3.96h4.126c.912 0 1.324-.615 1.324-1.169 0-.575-.412-1.17-1.324-1.17h-4.126v-3.837h4.408c.89 0 1.281-.615 1.281-1.17 0-.533-.347-1.169-1.28-1.169h-5.712z"/>
    </g>
</svg>
