<svg width="100" height="89" viewBox="0 0 100 89" xmlns="http://www.w3.org/2000/svg"><title>nrs-logo</title><g fill-rule="nonzero" fill="#E5E1DE"><path d="M8.895.314C4.372.314.685 4.28.685 9.14v52.275c0 4.872 3.687 8.825 8.21 8.825h67.938v-4.616H8.895c-2.023 0-3.663-1.883-3.663-4.21V9.14c0-2.326 1.64-4.21 3.663-4.21h72.333c2.023 0 3.663 1.884 3.663 4.21v22.998h4.547v-23c0-4.87-3.686-8.824-8.21-8.824H8.896z"/><path d="M11.697 32.533h3.14c1.674 0 2.836-1 2.836-2.71 0-1.732-1.162-2.685-2.837-2.685h-3.14v5.395zm-4.57-7.21c0-1.464.826-2.37 2.35-2.37h5.36c4.697 0 7.58 2.104 7.58 6.883 0 3.348-2.523 5.267-5.64 5.755l5.175 5.547c.43.454.605.907.605 1.337 0 1.186-.942 2.35-2.28 2.35-.546 0-1.278-.21-1.766-.792l-6.766-8.197h-.06v6.605c0 1.523-.975 2.372-2.278 2.372-1.313 0-2.29-.85-2.29-2.372V25.324h.012zM24.057 25.592c0-1.524.767-2.65 2.372-2.65h7.557c1.465 0 2.162 1.033 2.162 2.103 0 1.035-.733 2.105-2.163 2.105h-5.36v4.44h5c1.487 0 2.22 1.036 2.22 2.106 0 1.035-.768 2.104-2.22 2.104h-5v4.628h5.64c1.464 0 2.16 1.035 2.16 2.105 0 1.034-.73 2.104-2.16 2.104h-7.86c-1.34 0-2.35-.918-2.35-2.29V25.592zM37.556 25.138c0-1.523.977-2.372 2.29-2.372 1.315 0 2.28.85 2.28 2.372v15.29h5.418c1.558 0 2.22 1.15 2.197 2.198-.057 1-.847 2.01-2.196 2.01h-7.616c-1.488 0-2.372-.976-2.372-2.5V25.14zM57.113 36.16h5.79l-2.825-8.836h-.058l-2.907 8.837zm-.337-11.057c.523-1.407 1.71-2.523 3.256-2.523 1.616 0 2.744 1.07 3.255 2.523l5.977 16.57c.186.487.244.906.244 1.127 0 1.186-.977 2.012-2.105 2.012-1.28 0-1.918-.675-2.22-1.582l-.92-2.86H55.8l-.92 2.837c-.302.942-.94 1.616-2.197 1.616-1.22 0-2.256-.918-2.256-2.128 0-.488.152-.848.21-1l6.14-16.592zM73.008 34.452l-5.756-8.105c-.267-.395-.43-.883-.43-1.372 0-1.22.918-2.22 2.197-2.22.79 0 1.488.337 1.883.918l4.384 6.36 4.383-6.36c.395-.58 1.093-.918 1.884-.918 1.28 0 2.197 1 2.197 2.22 0 .49-.15.977-.43 1.372l-5.754 8.105v8.127c0 1.127-.675 2.22-2.28 2.22-1.616 0-2.29-1.093-2.29-2.22V34.45h.012zM86.158 47.637c-.558-.465-.814-1.326-.744-2.558.29-5.478 2.453-8.954 3.314-9.22.372-.083 2 .22 3.697 1.51 1.884 1.43 4.186 4.256 4.465 9.64.233 4.534.674 27.428-13.534 32.486-1.093.395-1.605.14-1.884-.093-1.418-1.128-1.604-5.256-1.383-7.116.092-.85.65-2.244 1.557-2.698.662-.338 1.57-.175 2.674.476l1.13.663.627-1.14c.197-.36 4.883-8.977 4.57-20.35l-.047-1.568-1.535.384c-.512.104-2.058.28-2.907-.42m1.78-14.208c-2.547.826-4.768 5.884-5.07 11.51-.117 2.094.453 3.664 1.674 4.664 1.128.918 2.51 1.105 3.57 1.08-.082 7.826-2.617 14.175-3.733 16.593-1.733-.662-3.024-.395-3.86.024-2.024 1-2.815 3.405-2.954 4.673-.012.07-.78 6.918 2.325 9.395.803.64 2.21 1.244 4.315.5 12.325-4.395 15.94-20.964 15.22-35.01-.36-7.023-3.85-10.43-5.907-11.848-1.965-1.36-4.267-2.012-5.58-1.582"/><path d="M90.03 35.08c-.116.186-2.895 4.546-3.105 8.43-.01.185.117.36.314.395.185.034.37-.07.43-.256.023-.06 2.116-6.512 3.488-7.966.093-.093.128-.232.093-.36-.034-.128-.14-.233-.267-.268l-.534-.14c-.164-.034-.327.024-.42.163M77.52 85.367c-.57-.093-1.396-.965-1.443-2.558.337.046.628.185.85.348.592.465.93 1.233.93 1.756 0 .105-.012.186-.036.267-.045.153-.103.21-.3.187m-4.49 2.082c-.185-.048-.336-.234-.394-.478-.035-.128-.047-.29-.047-.477 0-.407.104-.942.383-1.488.116.163.232.337.314.57.186.488.255.872.255 1.162 0 .29-.07.5-.174.604-.116.128-.267.116-.337.105m-4.522-.118c-.047-.08-.07-.174-.07-.267 0-.28.163-.58.256-.733.14-.244.35-.488.593-.71.012.024.012.036.023.07.047.187.07.373.07.547 0 .64-.302 1.058-.593 1.185-.163.047-.22-.01-.28-.093m13.49-11.72c-.664.326-5.92 2.942-7.06 5.953-.255.082-.522.186-.778.338-.664.395-1.176.837-1.583 1.29-.162-.046-.325-.105-.5-.116-.744-.07-1.534.14-2.244.5-.662-.884-1.534-1.163-2.453-1.35-.372-.07-.72.164-.802.536-.012.046-.012.093-.012.128 0 .315.22.605.547.664.686.14 1.21.28 1.593.755-.49.395-.896.86-1.175 1.313-.3.5-.452.99-.452 1.43 0 .36.093.698.29 1 .43.663 1.21.896 1.942.582.768-.326 1.407-1.22 1.407-2.42 0-.278-.035-.57-.116-.882-.046-.198-.115-.373-.174-.547.43-.22.872-.372 1.303-.384-.373.768-.513 1.512-.513 2.105 0 .29.035.535.08.744.176.757.7 1.303 1.385 1.49.616.15 1.256-.036 1.686-.512.233-.256.512-.733.512-1.512 0-.442-.093-.988-.338-1.64-.186-.488-.453-.87-.767-1.197.267-.268.593-.512.977-.757.163 2.082 1.395 3.384 2.57 3.558.837.13 1.546-.3 1.79-1.103.07-.21.093-.442.093-.675 0-.988-.558-2.127-1.442-2.825-.395-.314-.837-.488-1.28-.58 1.06-1.757 4.047-3.7 6.106-4.687.243-.117.382-.36.382-.605 0-.105-.023-.198-.07-.29-.162-.326-.57-.466-.906-.303M15.115 8.697v7.023l-.337-.407-5.465-7.29c-.197-.268-.686-.5-.953-.5-.698 0-1.128.453-1.128 1.174v9.79c0 .72.43 1.175 1.128 1.175s1.128-.454 1.128-1.175v-6.94l.337.406 5.465 7.21c.22.278.697.5.953.5.686 0 1.128-.455 1.128-1.176v-9.79c0-.72-.43-1.174-1.127-1.174-.697 0-1.128.453-1.128 1.174M23.65 9.395l.198.5 1.674 5.22h-3.744l1.872-5.72zm-1.663-.65l-3.465 9.382c-.035.093-.104.28-.104.512 0 .58.488 1.033 1.104 1.033.558 0 .907-.255 1.082-.79l.558-1.72h5.034l.558 1.743c.175.535.524.78 1.093.78.582 0 1.024-.42 1.024-.966 0-.093-.023-.314-.127-.58L25.36 8.754c-.303-.837-.908-1.314-1.687-1.314-.884-.022-1.453.664-1.686 1.304zM29.347 7.627c-.65 0-1 .524-1 1.024 0 .49.268 1.024 1 1.024h2.047V18.5c0 .72.43 1.173 1.127 1.173.7 0 1.13-.453 1.13-1.174V9.673h2.046c.744 0 1-.523 1-1.023 0-.488-.35-1.023-1-1.023h-6.35zM37.603 8.697v9.79c0 .72.43 1.175 1.127 1.175.698 0 1.128-.454 1.128-1.175v-9.79c0-.72-.43-1.174-1.128-1.174-.697 0-1.127.453-1.127 1.174M43.602 13.604c0-2.058 1.058-4.14 3.407-4.14 2.348 0 3.406 2.082 3.406 4.14 0 2.51-1.337 4.128-3.407 4.128-2.06 0-3.408-1.617-3.408-4.128m-2.348 0c0 3.58 2.418 6.174 5.767 6.174 3.338 0 5.768-2.593 5.768-6.174 0-3.523-2.477-6.174-5.767-6.174-3.336-.012-5.766 2.593-5.766 6.174M61.962 8.697v7.023l-.337-.407-5.465-7.29c-.198-.268-.686-.5-.954-.5-.697 0-1.128.453-1.128 1.174v9.79c0 .72.43 1.175 1.128 1.175s1.128-.454 1.128-1.175v-6.94l.337.406 5.466 7.21c.22.278.698.5.954.5.686 0 1.127-.455 1.127-1.176v-9.79c0-.72-.43-1.174-1.127-1.174-.698 0-1.128.453-1.128 1.174M70.508 9.395l.197.5 1.675 5.22h-3.744l1.872-5.72zm-1.675-.65l-3.464 9.382c-.036.093-.106.28-.106.512 0 .58.488 1.033 1.104 1.033.56 0 .907-.255 1.082-.79l.558-1.72h5.035l.558 1.743c.175.535.524.78 1.094.78.58 0 1.023-.42 1.023-.966 0-.093-.023-.314-.128-.58l-3.385-9.385c-.302-.837-.918-1.314-1.686-1.314-.884-.022-1.454.664-1.687 1.304zM76.856 8.697v9.628c0 .78.442 1.244 1.175 1.244h4.314c.663 0 1.047-.49 1.07-.978.012-.29-.093-.57-.28-.767-.197-.198-.452-.303-.79-.303h-3.232V8.697c0-.72-.43-1.174-1.128-1.174s-1.128.453-1.128 1.174M7.093 52.404c0 2.767 2.348 3.43 4.406 4.012 1.57.44 3.046.86 3.046 2.22 0 1.35-1.047 2.256-2.616 2.256-.838 0-1.617-.267-2.29-.512-.536-.186-1.036-.36-1.466-.36-.79 0-1.15.65-1.15 1.244 0 1.71 3.196 2.163 5.092 2.163 2.674 0 5.383-1.663 5.383-4.85 0-3.278-2.617-4.033-4.722-4.65-1.465-.43-2.732-.79-2.732-1.94 0-1.036.92-1.792 2.174-1.792.79 0 1.372.21 1.896.407.395.14.72.267 1.08.267.757 0 1.152-.675 1.152-1.315 0-1.418-2.78-1.895-4.035-1.895-2.604.012-5.22 1.64-5.22 4.744M21 47.94c-1.222 0-1.408 1-1.408 1.604v12.29c0 .802.558 1.337 1.384 1.337h5.767c.86 0 1.244-.615 1.244-1.197 0-.558-.326-1.21-1.244-1.21h-4.477v-4.068h4c.884 0 1.29-.628 1.29-1.198 0-.605-.395-1.198-1.29-1.198h-4v-3.942h4.267c.86 0 1.245-.628 1.245-1.198 0-.558-.326-1.21-1.245-1.21H21v-.01zM32.614 50.346h2.64c1.465 0 2.418.907 2.418 2.302 0 1.396-.976 2.326-2.418 2.326h-2.64v-4.628zm-1.29-2.407c-1.14 0-1.384.767-1.384 1.406v12.558c0 .86.512 1.406 1.337 1.406.826 0 1.337-.534 1.337-1.406v-5.186h.547l5.06 6.127c.278.338.72.454 1.034.454.802 0 1.337-.722 1.337-1.385 0-.244-.115-.5-.348-.756l-4.232-4.535.628-.093c2.406-.384 3.848-1.837 3.848-3.884 0-3.127-1.756-4.71-5.22-4.71h-3.942zM51.404 48.707c-.01.046-3.767 10.127-3.767 10.127l-3.78-10.14c-.278-.58-.673-.87-1.197-.87-.662 0-1.383.487-1.383 1.266 0 .268.035.454.128.71L46.3 62.24c.28.698.58 1.082 1.337 1.082.756 0 1.058-.384 1.337-1.08L53.87 49.8c.092-.256.127-.442.127-.698 0-.78-.72-1.267-1.384-1.267-.523-.024-.918.267-1.21.872M55.59 49.207v12.685c0 .86.512 1.407 1.337 1.407.826 0 1.337-.536 1.337-1.408V49.207c0-.86-.51-1.407-1.337-1.407-.825 0-1.337.546-1.337 1.407M60.322 55.555c0 4.57 3.093 7.883 7.35 7.883 1.615 0 4.685-.476 4.685-2.302 0-.337-.338-1.186-1.14-1.186-.302 0-.616.14-1 .314-.616.28-1.372.628-2.546.628-3.14 0-4.534-2.65-4.534-5.28 0-2.696 1.407-5.405 4.535-5.405 1.175 0 1.884.29 2.454.523.36.15.65.267.965.267.685 0 1.046-.593 1.046-1.163 0-1.58-2.733-2.162-4.465-2.162-4.255 0-7.348 3.314-7.348 7.883M75.996 47.94c-1.22 0-1.407 1-1.407 1.604v12.29c0 .802.557 1.337 1.383 1.337h5.767c.86 0 1.244-.615 1.244-1.197 0-.558-.326-1.21-1.244-1.21h-4.477v-4.068h4c.884 0 1.29-.628 1.29-1.198 0-.605-.395-1.198-1.29-1.198h-4v-3.942h4.267c.86 0 1.245-.628 1.245-1.198 0-.558-.326-1.21-1.245-1.21h-5.534v-.01z"/></g></svg>