<?xml version="1.0" encoding="utf-8"?>
<!DOCTYPE svg PUBLIC "-//W3C//DTD SVG 1.1//EN" "http://www.w3.org/Graphics/SVG/1.1/DTD/svg11.dtd">
<svg version="1.1" xmlns="http://www.w3.org/2000/svg" xmlns:xlink="http://www.w3.org/1999/xlink" x="0px" y="0px" viewBox="0 0 1000 1000" enable-background="new 0 0 1000 1000" xml:space="preserve">
  <title>Print</title>
<g>
<path d="M953,185H780.3V47c0-20.4-16.5-37-37-37H257.3c-20.4,0-37,16.5-37,37v138H47c-20.4,0-37,16.5-37,37V813c0,20.4,16.5,37,37,37h173v103c0,20.4,16.5,37,37,37H743c20.4,0,37-16.5,37-37V850h173c20.4,0,37-16.5,37-37V222C990,201.5,973.5,185,953,185z M255.3,64c0-10.5,8.5-19,19-19h451.9c10.5,0,19,8.5,19,19v121h-490V64z M745,936c0,10.5-8.5,19-19,19H274c-10.5,0-19-8.5-19-19V519c0-10.5,8.5-19,19-19H726c10.5,0,19,8.5,19,19V936z M955,796c0,10.5-8.5,19-19,19H780V502c0-20.4-16.5-37-37-37H257c-20.4,0-37,16.5-37,37v313H64c-10.5,0-19-8.5-19-19V239c0-10.5,8.5-19,19-19h156.3h35h490h35H936c10.5,0,19,8.5,19,19V796z"/>
<path d="M657.5,640h-315c-9.7,0-17.5,7.8-17.5,17.5c0,9.7,7.8,17.5,17.5,17.5h315c9.7,0,17.5-7.8,17.5-17.5C675,647.8,667.2,640,657.5,640z"/>
<path d="M657.5,745h-315c-9.7,0-17.5,7.8-17.5,17.5s7.8,17.5,17.5,17.5h315c9.7,0,17.5-7.8,17.5-17.5S667.2,745,657.5,745z"/>
<path d="M657.5,850h-315c-9.7,0-17.5,7.8-17.5,17.5c0,9.7,7.8,17.5,17.5,17.5h315c9.7,0,17.5-7.8,17.5-17.5C675,857.8,667.2,850,657.5,850z"/>
<path d="M815,342.5c0,9.7,7.8,17.5,17.5,17.5c9.7,0,17.5-7.8,17.5-17.5c0-9.7-7.8-17.5-17.5-17.5C822.8,325,815,332.8,815,342.5z"/>
<path d="M710,342.5c0,9.7,7.8,17.5,17.5,17.5c9.7,0,17.5-7.8,17.5-17.5c0-9.7-7.8-17.5-17.5-17.5C717.8,325,710,332.8,710,342.5z"/>
</g>
</svg>
