<?xml version="1.0" encoding="UTF-8"?>
<svg width="64px" height="45px" viewBox="0 0 64 45" version="1.1" xmlns="http://www.w3.org/2000/svg" xmlns:xlink="http://www.w3.org/1999/xlink">
    <title>Torres Strait Flag</title>
    <defs></defs>
    <g id="Page-1" stroke="none" stroke-width="1" fill="none" fill-rule="evenodd">
        <g id="torres-strait-flag" fill-rule="nonzero">
            <rect id="Rectangle-path" fill="#008700" x="0" y="0" width="64" height="44.3100014"></rect>
            <rect id="Rectangle-path" fill="#0032FF" x="0" y="8.86200027" width="64" height="26.5860008"></rect>
            <rect id="Rectangle-path" fill="#000000" x="0" y="8.86200027" width="64" height="2.95400009"></rect>
            <rect id="Rectangle-path" fill="#000000" x="0" y="32.494001" width="64" height="2.95400009"></rect>
            <path d="M40.8875815,30.352794 L37.7017108,27.6322092 L38.9903754,23.4438309 C39.4183713,22.1409865 39.5528667,20.7595883 39.3842215,19.3986478 C38.1671385,15.2818548 32.6903138,13.9573304 32.6903138,13.9573304 L32,17.0000736 L31.3098092,13.9572319 C31.3098092,13.9572319 25.8328862,15.2817564 24.6159015,19.3985494 C24.4472564,20.7594898 24.5817517,22.1408881 25.0097477,23.4437325 L26.2984123,27.6321107 L23.1125415,30.3527694 L28.5535754,28.4196718 L28.5535754,21.6552823 C28.5536341,21.3771587 28.6531679,21.1082288 28.8341908,20.897089 L28.9982523,20.7056698 C29.5466126,20.0658854 30.2850127,19.6180251 31.1057723,19.4274001 L31.1057723,19.4274001 C31.694233,19.290728 32.3061855,19.290728 32.8946462,19.4274001 L32.8946462,19.4274001 C33.7154146,19.6180203 34.453824,20.0658809 35.0021908,20.7056698 L35.1662523,20.897089 C35.3472752,21.1082288 35.446809,21.3771587 35.4468677,21.6552823 L35.4468677,28.4196718 L40.8875815,30.352794 Z" id="Shape" fill="#FFFFFF"></path>
            <polygon id="Shape" fill="#FFFFFF" points="32 19.5850206 32.7581538 21.9186807 35.2147692 21.9186807 33.2283077 23.3636791 33.9864615 25.6998008 32 24.2548024 30.0135385 25.6998008 30.7716923 23.3636791 28.7852308 21.9186807 31.2418462 21.9186807"></polygon>
        </g>
    </g>
</svg>
