<svg id="Layer_1" data-name="Layer 1" xmlns="http://www.w3.org/2000/svg" viewBox="0 0 28 22">
  <defs>
    <style>
      .cls-1 {
        fill: #008700;
      }
      .cls-2 {
        fill: #0032ff;
      }
      .cls-3 {
        fill: #fff;
      }
    </style>
  </defs>
  <title>Torres Strait Islander Flag</title>
  <rect class="cls-1" x="1" y="2" width="26" height="18" />
  <rect class="cls-2" x="1" y="5.6" width="26" height="10.8" />
  <rect x="1" y="5.6" width="26" height="1.2" />
  <rect x="1" y="15.2" width="26" height="1.2" />
  <path class="cls-3" d="M17.61058,14.33018,16.31632,13.225l.52352-1.70144a3.77678,3.77678,0,0,0,.16-1.64327c-.49444-1.67236-2.7194-2.21042-2.7194-2.21042L14,8.90592l-.28039-1.23609s-2.225.53806-2.7194,2.21042a3.77678,3.77678,0,0,0,.16,1.64327l.52352,1.70144-1.29426,1.10521,2.21042-.78528V10.797a.47334.47334,0,0,1,.114-.308l.06665-.07776a1.60624,1.60624,0,0,1,.85618-.51927h0a1.60624,1.60624,0,0,1,.72673,0h0a1.60624,1.60624,0,0,1,.85619.51927l.06665.07776a.47334.47334,0,0,1,.114.308v2.74789Z"/>
  <polygon class="cls-3" points="14 9.956 14.308 10.904 15.306 10.904 14.499 11.491 14.807 12.44 14 11.853 13.193 12.44 13.501 11.491 12.694 10.904 13.692 10.904 14 9.956" />
</svg>
